<svg xmlns="http://www.w3.org/2000/svg" width="292.235" height="265.641" viewBox="0 0 292.235 265.641">
  <g id="Component_1_1" data-name="Component 1 – 1" transform="translate(0.712 0.716)">
    <path id="Path_5" data-name="Path 5" d="M365.789-446.887c39.07-17.288,84.554,78.513,40.254,144.492s-103.937,57.554-143.706,1.6-41.532-131,27.412-106.506S326.718-429.6,365.789-446.887Z" transform="matrix(-0.545, 0.839, -0.839, -0.545, 42.053, -336.174)" fill="#ffe697" stroke="rgba(112,112,112,0)" stroke-width="1"/>
    <text id="JL" transform="translate(108.783 159.205)" fill="#ca4c4c" font-size="80" font-family="SegoeUI, Segoe UI"><tspan x="0" y="0">JL</tspan></text>
    <path id="Path_3" data-name="Path 3" d="M365.789-446.887c39.07-17.288,84.554,78.513,40.254,144.492s-103.937,57.554-143.706,1.6-41.532-131,27.412-106.506S326.718-429.6,365.789-446.887Z" transform="translate(-49.436 575.974) rotate(-22)" fill="none" stroke="#707070" stroke-width="1"/>
    <path id="Path_4" data-name="Path 4" d="M138.2,6.032" transform="translate(24.913 -4.96)" fill="none" stroke="#707070" stroke-width="1"/>
  </g>
</svg>
